<svg xmlns="http://www.w3.org/2000/svg" width="1070.081" height="546.858" viewBox="0 0 1070.081 546.858"><g transform="translate(-208 -132.792)"><path d="M208,388.122s7.19-90.159,238.02-47.261S1022.586,647.88,1190.6,542.72c58.019-47.141,61.867-229.616,10.537-318.018-73.539-126.65-189.976,0-189.976,0s30.641-81.71,128.693-75.582,143.313,154.259,137.774,213.5S1305.318,598.526,1113.3,631.21c-89.881,0-225.252-36.589-431.02-100.1C503.083,475.81,247.813,437.25,208,508.644Z" fill="rgba(0,255,229,0.41)"/><path d="M208,412.523s7.19-99.351,238.02-52.08,576.566,338.32,744.579,222.439c58.019-51.947,61.867-253.026,10.537-350.441-73.539-139.563-189.976,0-189.976,0s30.641-90.041,128.693-83.288S1283.167,319.14,1277.628,384.42s27.689,259.958-164.329,295.975c-89.881,0-225.252-40.32-431.02-110.3C503.083,509.151,247.813,466.66,208,545.333Z" transform="translate(0 -16)" fill="rgba(0,255,229,0.41)"/><path d="M208,420.091s7.19-102.2,238.02-53.574S1022.586,714.547,1190.6,595.34c58.019-53.437,61.867-260.287,10.537-360.5-73.539-143.568-189.976,0-189.976,0s30.641-92.625,128.693-85.678,143.313,174.864,137.775,242.017S1305.318,658.6,1113.3,695.65c-89.881,0-225.252-41.477-431.02-113.466-179.2-62.693-434.466-106.4-474.279-25.472Z" transform="translate(0 -16)" fill="rgba(0,255,229,0.41)"/></g></svg>