<svg xmlns="http://www.w3.org/2000/svg" width="1326.928" height="1701.695" viewBox="0 0 1326.928 1701.695">
  <g id="front_design" data-name="front design" transform="translate(-208 -132.792)">
    <path id="Path_1" data-name="Path 1" d="M208,961.043s8.916-305.986,295.152-160.4,714.957,1041.976,923.3,685.08c71.945-159.988,76.717-779.282,13.066-1079.306-91.19-429.833-235.575,0-235.575,0s38-277.312,159.583-256.513,177.712,523.532,170.844,724.583,34.336,800.633-203.772,911.558c-111.455,0-279.318-124.178-534.477-339.709C573.91,1258.641,257.369,1127.777,208,1370.078Z" transform="translate(0 0)" fill="rgba(0,255,229,0.41)"/>
    <path id="Path_2" data-name="Path 2" d="M208,985.444s8.916-315.178,295.152-165.216,714.957,1073.278,923.3,705.661c71.945-164.794,76.717-802.693,13.066-1111.729-91.19-442.746-235.575,0-235.575,0s38-285.642,159.583-264.219S1541.235,689.2,1534.367,896.29s34.336,824.685-203.772,938.942c-111.455,0-279.318-127.909-534.477-349.914C573.91,1291.983,257.369,1157.187,208,1406.767Z" transform="translate(0 -16)" fill="rgba(0,255,229,0.41)"/>
    <path id="Path_3" data-name="Path 3" d="M208,993.013s8.916-318.03,295.152-166.711,714.957,1082.987,923.3,712.044c71.945-166.285,76.717-809.954,13.066-1121.786-91.19-446.751-235.575,0-235.575,0s38-288.227,159.583-266.609,177.712,544.138,170.844,753.1,34.336,832.145-203.772,947.436c-111.455,0-279.318-129.065-534.477-353.079C573.91,1302.324,257.369,1166.309,208,1418.147Z" transform="translate(0 -16)" fill="rgba(0,255,229,0.41)"/>
  </g>
</svg>
