<svg xmlns="http://www.w3.org/2000/svg" width="1039" height="475" viewBox="0 0 1039 475">
  <g id="skill_presentation" data-name="skill presentation" transform="translate(-130 -952)">
    <path id="Polygon_4" data-name="Polygon 4" d="M164.25,0,219,95l-54.75,95H54.75L0,95,54.75,0Z" transform="translate(622 1047)" fill="#fff"/>
    <path id="Polygon_8" data-name="Polygon 8" d="M164.25,0,219,95l-54.75,95H54.75L0,95,54.75,0Z" transform="translate(294 1237)" fill="#fff"/>
    <path id="Polygon_14" data-name="Polygon 14" d="M164.25,0,219,95l-54.75,95H54.75L0,95,54.75,0Z" transform="translate(130 1142)" fill="#fff"/>
    <path id="Polygon_2" data-name="Polygon 2" d="M164.25,0,219,95l-54.75,95H54.75L0,95,54.75,0Z" transform="translate(294 1047)" fill="#fff"/>
    <path id="Polygon_5" data-name="Polygon 5" d="M164.25,0,219,95l-54.75,95H54.75L0,95,54.75,0Z" transform="translate(786 1142)" fill="#fff"/>
    <path id="Polygon_1" data-name="Polygon 1" d="M164.25,0,219,95l-54.75,95H54.75L0,95,54.75,0Z" transform="translate(458 952)" fill="#fff"/>
    <path id="Polygon_6" data-name="Polygon 6" d="M164.25,0,219,95l-54.75,95H54.75L0,95,54.75,0Z" transform="translate(950 1047)" fill="#fff"/>
    <path id="Polygon_9" data-name="Polygon 9" d="M164.25,0,219,95l-54.75,95H54.75L0,95,54.75,0Z" transform="translate(622 1237)" fill="#fff"/>
    <path id="Polygon_7" data-name="Polygon 7" d="M164.25,0,219,95l-54.75,95H54.75L0,95,54.75,0Z" transform="translate(786 952)" fill="#fff"/>
    <path id="Polygon_10" data-name="Polygon 10" d="M164.25,0,219,95l-54.75,95H54.75L0,95,54.75,0Z" transform="translate(458 1142)" fill="#fff"/>
  </g>
</svg>
